<?xml version="1.0" standalone="no"?>
<!DOCTYPE svg PUBLIC "-//W3C//DTD SVG 20010904//EN"
 "http://www.w3.org/TR/2001/REC-SVG-20010904/DTD/svg10.dtd">
<svg version="1.0" xmlns="http://www.w3.org/2000/svg"
 width="118.000000pt" height="117.000000pt" viewBox="0 0 118.000000 117.000000"
 preserveAspectRatio="xMidYMid meet">
<metadata>
Created by potrace 1.16, written by Peter Selinger 2001-2019
</metadata>
<g transform="translate(0.000000,117.000000) scale(0.100000,-0.100000)"
fill="#000000" stroke="none">
<path d="M356 955 c-98 -57 -182 -107 -187 -112 -12 -12 338 -214 383 -220 34
-5 56 5 207 91 93 53 172 96 175 96 3 0 6 -8 6 -18 0 -13 -49 -47 -171 -117
-144 -83 -174 -105 -185 -132 -18 -41 -20 -443 -3 -443 17 0 129 63 129 73 0
4 4 5 10 2 5 -3 17 3 27 15 10 11 23 20 30 20 18 0 83 40 83 52 0 5 4 7 10 3
5 -3 18 3 28 13 10 10 24 16 30 14 7 -2 12 4 12 13 0 9 5 13 10 10 6 -4 17 -1
25 5 17 14 21 110 5 110 -7 0 -7 6 0 19 6 11 10 90 10 186 0 160 -1 166 -19
160 -15 -4 -20 0 -23 16 -4 31 -106 91 -130 78 -14 -8 -18 -6 -18 10 0 27 -97
83 -122 70 -14 -8 -18 -6 -18 10 0 13 -17 30 -54 50 -29 17 -57 31 -62 30 -5
0 -89 -47 -188 -104z m534 -393 c0 -41 -21 -65 -99 -111 -83 -49 -96 -51 -86
-13 11 45 31 68 89 102 31 17 58 35 61 41 13 20 35 8 35 -19z"/>
<path d="M140 639 c0 -101 4 -168 11 -182 9 -16 9 -22 0 -25 -14 -5 -15 -67
-1 -93 6 -10 19 -19 29 -19 11 0 21 -7 25 -15 3 -8 15 -15 26 -15 11 0 20 -4
20 -9 0 -5 10 -13 22 -17 12 -3 29 -14 39 -23 10 -9 41 -28 68 -41 28 -14 51
-28 51 -32 0 -10 108 -67 115 -60 11 11 5 421 -6 446 -8 17 -63 54 -173 117
-88 51 -173 101 -188 111 -14 10 -29 18 -32 18 -3 0 -6 -72 -6 -161z"/>
</g>
</svg>
